<?xml version="1.0" encoding="utf-8" standalone="no"?>
<!DOCTYPE svg PUBLIC "-//W3C//DTD SVG 1.1//EN"
  "http://www.w3.org/Graphics/SVG/1.1/DTD/svg11.dtd">
<!-- Created with matplotlib (https://matplotlib.org/) -->
<svg height="316.8pt" version="1.1" viewBox="0 0 460.8 316.8" width="460.8pt" xmlns="http://www.w3.org/2000/svg" xmlns:xlink="http://www.w3.org/1999/xlink">
 <metadata>
  <rdf:RDF xmlns:cc="http://creativecommons.org/ns#" xmlns:dc="http://purl.org/dc/elements/1.1/" xmlns:rdf="http://www.w3.org/1999/02/22-rdf-syntax-ns#">
   <cc:Work>
    <dc:type rdf:resource="http://purl.org/dc/dcmitype/StillImage"/>
    <dc:date>2021-03-21T13:25:44.985387</dc:date>
    <dc:format>image/svg+xml</dc:format>
    <dc:creator>
     <cc:Agent>
      <dc:title>Matplotlib v3.3.4, https://matplotlib.org/</dc:title>
     </cc:Agent>
    </dc:creator>
   </cc:Work>
  </rdf:RDF>
 </metadata>
 <defs>
  <style type="text/css">*{stroke-linecap:butt;stroke-linejoin:round;}</style>
 </defs>
 <g id="figure_1">
  <g id="patch_1">
   <path d="M 0 316.8 
L 460.8 316.8 
L 460.8 0 
L 0 0 
z
" style="fill:#ffffff;"/>
  </g>
  <g id="axes_1">
   <g id="patch_2">
    <path d="M 57.6 281.952 
L 414.72 281.952 
L 414.72 38.016 
L 57.6 38.016 
z
" style="fill:#ffffff;"/>
   </g>
   <g id="PolyCollection_1">
    <defs>
     <path d="M 73.832727 -85.764432 
L 73.832727 -85.128286 
L 80.198503 -86.018757 
L 86.564278 -87.188558 
L 92.930053 -88.835736 
L 99.295829 -90.49741 
L 105.661604 -92.312821 
L 112.02738 -94.198954 
L 118.393155 -95.842559 
L 124.75893 -97.057101 
L 131.124706 -98.219145 
L 137.490481 -99.957903 
L 143.856257 -101.723254 
L 150.222032 -103.488032 
L 156.587807 -105.02989 
L 162.953583 -106.676389 
L 169.319358 -107.268812 
L 175.685134 -108.293023 
L 182.050909 -110.07716 
L 188.416684 -111.717819 
L 194.78246 -113.525031 
L 201.148235 -115.152249 
L 207.514011 -116.02318 
L 213.879786 -116.304217 
L 220.245561 -116.872535 
L 226.611337 -117.761116 
L 232.977112 -118.495856 
L 239.342888 -119.222917 
L 245.708663 -119.870679 
L 252.074439 -120.453154 
L 258.440214 -120.690871 
L 264.805989 -121.057596 
L 271.171765 -121.610727 
L 277.53754 -122.028254 
L 283.903316 -122.510441 
L 290.269091 -122.860962 
L 296.634866 -123.147017 
L 303.000642 -123.269507 
L 309.366417 -123.473369 
L 315.732193 -123.712285 
L 322.097968 -123.924829 
L 328.463743 -124.167865 
L 334.829519 -124.331706 
L 341.195294 -124.483435 
L 347.56107 -124.521084 
L 353.926845 -124.668212 
L 360.29262 -124.912447 
L 366.658396 -125.188257 
L 373.024171 -125.425596 
L 379.389947 -125.620789 
L 385.755722 -125.773196 
L 392.121497 -125.844049 
L 398.487273 -125.927859 
L 398.487273 -265.460912 
L 398.487273 -265.460912 
L 392.121497 -265.457562 
L 385.755722 -265.455919 
L 379.389947 -265.450874 
L 373.024171 -265.445138 
L 366.658396 -265.432428 
L 360.29262 -265.418179 
L 353.926845 -265.40466 
L 347.56107 -265.395235 
L 341.195294 -265.389969 
L 334.829519 -265.366125 
L 328.463743 -265.34146 
L 322.097968 -265.29672 
L 315.732193 -265.233442 
L 309.366417 -265.143113 
L 303.000642 -265.063657 
L 296.634866 -265.018368 
L 290.269091 -264.897378 
L 283.903316 -264.678368 
L 277.53754 -264.349801 
L 271.171765 -263.950864 
L 264.805989 -263.328758 
L 258.440214 -262.796302 
L 252.074439 -262.341413 
L 245.708663 -260.490973 
L 239.342888 -257.976399 
L 232.977112 -254.463855 
L 226.611337 -249.721817 
L 220.245561 -243.541925 
L 213.879786 -239.142039 
L 207.514011 -236.834285 
L 201.148235 -229.885838 
L 194.78246 -222.020859 
L 188.416684 -213.481682 
L 182.050909 -205.238689 
L 175.685134 -196.147554 
L 169.319358 -190.733833 
L 162.953583 -187.676987 
L 156.587807 -179.225009 
L 150.222032 -171.216644 
L 143.856257 -162.166521 
L 137.490481 -152.965438 
L 131.124706 -143.352407 
L 124.75893 -137.417702 
L 118.393155 -130.904498 
L 112.02738 -121.976422 
L 105.661604 -111.937924 
L 99.295829 -103.266572 
L 92.930053 -96.182625 
L 86.564278 -90.512584 
L 80.198503 -87.455529 
L 73.832727 -85.764432 
z
" id="mdbe6fb1ffe" style="stroke:#c2cdd8;stroke-opacity:0.5;stroke-width:0.24;"/>
    </defs>
    <g clip-path="url(#p799a3d9b92)">
     <use style="fill:#c2cdd8;fill-opacity:0.5;stroke:#c2cdd8;stroke-opacity:0.5;stroke-width:0.24;" x="0" xlink:href="#mdbe6fb1ffe" y="316.8"/>
    </g>
   </g>
   <g id="PolyCollection_2">
    <defs>
     <path d="M 73.832727 -84.09169 
L 73.832727 -84.09169 
L 80.198503 -84.416136 
L 86.564278 -84.770822 
L 92.930053 -85.15747 
L 99.295829 -85.578175 
L 105.661604 -86.037772 
L 112.02738 -86.533698 
L 118.393155 -87.06398 
L 124.75893 -87.643522 
L 131.124706 -88.265164 
L 137.490481 -88.926299 
L 143.856257 -89.638981 
L 150.222032 -90.406009 
L 156.587807 -91.206544 
L 162.953583 -92.051306 
L 169.319358 -92.933088 
L 175.685134 -93.856776 
L 182.050909 -94.803225 
L 188.416684 -95.779651 
L 194.78246 -96.767662 
L 201.148235 -97.780629 
L 207.514011 -98.836023 
L 213.879786 -99.887739 
L 220.245561 -100.954771 
L 226.611337 -102.028924 
L 232.977112 -103.093138 
L 239.342888 -104.151454 
L 245.708663 -105.189286 
L 252.074439 -106.20278 
L 258.440214 -107.173475 
L 264.805989 -108.108359 
L 271.171765 -109.005727 
L 277.53754 -109.861879 
L 283.903316 -110.675708 
L 290.269091 -111.45112 
L 296.634866 -112.181554 
L 303.000642 -112.862982 
L 309.366417 -113.499802 
L 315.732193 -114.094464 
L 322.097968 -114.67315 
L 328.463743 -115.180985 
L 334.829519 -115.649786 
L 341.195294 -116.092857 
L 347.56107 -116.510293 
L 353.926845 -116.889657 
L 360.29262 -117.233447 
L 366.658396 -117.54734 
L 373.024171 -117.832957 
L 379.389947 -118.093386 
L 385.755722 -118.324383 
L 392.121497 -118.528874 
L 398.487273 -118.72543 
L 398.487273 -269.512938 
L 398.487273 -269.512938 
L 392.121497 -268.471342 
L 385.755722 -267.327116 
L 379.389947 -266.058912 
L 373.024171 -264.658761 
L 366.658396 -263.099357 
L 360.29262 -261.36443 
L 353.926845 -259.491465 
L 347.56107 -257.518336 
L 341.195294 -255.412908 
L 334.829519 -253.127009 
L 328.463743 -250.559119 
L 322.097968 -247.82929 
L 315.732193 -244.793496 
L 309.366417 -241.559003 
L 303.000642 -238.136383 
L 296.634866 -234.400855 
L 290.269091 -230.436888 
L 283.903316 -226.235073 
L 277.53754 -221.808684 
L 271.171765 -217.196977 
L 264.805989 -212.470291 
L 258.440214 -207.656003 
L 252.074439 -202.498283 
L 245.708663 -197.127308 
L 239.342888 -191.51327 
L 232.977112 -185.838402 
L 226.611337 -179.956235 
L 220.245561 -174.117555 
L 213.879786 -168.547786 
L 207.514011 -162.942538 
L 201.148235 -157.339542 
L 194.78246 -151.734661 
L 188.416684 -146.335065 
L 182.050909 -141.017314 
L 175.685134 -135.894097 
L 169.319358 -130.938737 
L 162.953583 -126.250403 
L 156.587807 -121.767271 
L 150.222032 -117.44727 
L 143.856257 -113.396784 
L 137.490481 -109.61266 
L 131.124706 -106.051122 
L 124.75893 -102.756415 
L 118.393155 -99.732282 
L 112.02738 -96.896329 
L 105.661604 -94.264898 
L 99.295829 -91.854945 
L 92.930053 -89.645683 
L 86.564278 -87.62326 
L 80.198503 -85.777703 
L 73.832727 -84.09169 
z
" id="meb49c23700" style="stroke:#a2a2a2;stroke-opacity:0.5;stroke-width:0.24;"/>
    </defs>
    <g clip-path="url(#p799a3d9b92)">
     <use style="fill:#a2a2a2;fill-opacity:0.5;stroke:#a2a2a2;stroke-opacity:0.5;stroke-width:0.24;" x="0" xlink:href="#meb49c23700" y="316.8"/>
    </g>
   </g>
   <g id="matplotlib.axis_1">
    <g id="xtick_1">
     <g id="line2d_1">
      <defs>
       <path d="M 0 0 
L 0 3.5 
" id="m66f627454d" style="stroke:#000000;stroke-width:0.8;"/>
      </defs>
      <g>
       <use style="stroke:#000000;stroke-width:0.8;" x="73.832727" xlink:href="#m66f627454d" y="281.952"/>
      </g>
     </g>
     <g id="text_1">
      <!-- 01-08 -->
      <g transform="translate(63.643049 296.730656)scale(0.08 -0.08)">
       <defs>
        <path d="M 27.5 71 
C 20.90625 71 14.90625 68.09375 11.203125 63.1875 
C 6.59375 57.015625 4.296875 47.546875 4.296875 34.484375 
C 4.296875 10.671875 12.296875 -2 27.5 -2 
C 42.5 -2 50.703125 10.671875 50.703125 33.890625 
C 50.703125 47.640625 48.5 56.8125 43.796875 63.1875 
C 40.09375 68.1875 34.203125 71 27.5 71 
z
M 27.5 63.1875 
C 37 63.1875 41.703125 53.625 41.703125 34.6875 
C 41.703125 14.65625 37.09375 5.296875 27.296875 5.296875 
C 18 5.296875 13.296875 15.0625 13.296875 34.390625 
C 13.296875 53.71875 18 63.1875 27.5 63.1875 
z
" id="Nimbus_Sans_L_Regular-48"/>
        <path d="M 25.90625 50.5 
L 25.90625 0 
L 34.703125 0 
L 34.703125 70.890625 
L 28.90625 70.890625 
C 25.796875 60 23.796875 58.5 10.203125 56.796875 
L 10.203125 50.5 
z
" id="Nimbus_Sans_L_Regular-49"/>
        <path d="M 28.40625 31.1875 
L 4.59375 31.1875 
L 4.59375 24 
L 28.40625 24 
z
" id="Nimbus_Sans_L_Regular-45"/>
        <path d="M 39.09375 37.484375 
C 46.40625 41.890625 48.796875 45.46875 48.796875 52.140625 
C 48.796875 63.1875 40.09375 71 27.5 71 
C 15 71 6.203125 63.1875 6.203125 52.140625 
C 6.203125 45.578125 8.59375 41.984375 15.796875 37.484375 
C 7.703125 33.59375 3.703125 27.71875 3.703125 19.9375 
C 3.703125 6.984375 13.5 -2 27.5 -2 
C 41.5 -2 51.296875 6.984375 51.296875 19.84375 
C 51.296875 27.71875 47.296875 33.59375 39.09375 37.484375 
z
M 27.5 63.1875 
C 35 63.1875 39.796875 58.8125 39.796875 51.9375 
C 39.796875 45.375 34.90625 41 27.5 41 
C 20.09375 41 15.203125 45.375 15.203125 52.046875 
C 15.203125 58.8125 20.09375 63.1875 27.5 63.1875 
z
M 27.5 33.59375 
C 36.296875 33.59375 42.296875 28.015625 42.296875 19.75 
C 42.296875 11.375 36.296875 5.796875 27.296875 5.796875 
C 18.703125 5.796875 12.703125 11.46875 12.703125 19.75 
C 12.703125 28.015625 18.703125 33.59375 27.5 33.59375 
z
" id="Nimbus_Sans_L_Regular-56"/>
       </defs>
       <use transform="scale(0.996264)" xlink:href="#Nimbus_Sans_L_Regular-48"/>
       <use transform="translate(55.391677 0)scale(0.996264)" xlink:href="#Nimbus_Sans_L_Regular-49"/>
       <use transform="translate(110.783354 0)scale(0.996264)" xlink:href="#Nimbus_Sans_L_Regular-45"/>
       <use transform="translate(143.958584 0)scale(0.996264)" xlink:href="#Nimbus_Sans_L_Regular-48"/>
       <use transform="translate(199.350261 0)scale(0.996264)" xlink:href="#Nimbus_Sans_L_Regular-56"/>
      </g>
     </g>
    </g>
    <g id="xtick_2">
     <g id="line2d_2">
      <g>
       <use style="stroke:#000000;stroke-width:0.8;" x="118.393155" xlink:href="#m66f627454d" y="281.952"/>
      </g>
     </g>
     <g id="text_2">
      <!-- 01-15 -->
      <g transform="translate(108.203476 296.730656)scale(0.08 -0.08)">
       <defs>
        <path d="M 47.59375 71 
L 11 71 
L 5.703125 32.4375 
L 13.796875 32.4375 
C 17.90625 37.296875 21.296875 39 26.796875 39 
C 36.296875 39 42.296875 32.53125 42.296875 22.09375 
C 42.296875 11.953125 36.40625 5.796875 26.796875 5.796875 
C 19.09375 5.796875 14.40625 9.671875 12.296875 17.625 
L 3.5 17.625 
C 4.703125 11.859375 5.703125 9.078125 7.796875 6.484375 
C 11.796875 1.09375 19 -2 27 -2 
C 41.296875 -2 51.296875 8.375 51.296875 23.28125 
C 51.296875 37.203125 42 46.796875 28.40625 46.796875 
C 23.40625 46.796875 19.40625 45.5 15.296875 42.5 
L 18.09375 62.296875 
L 47.59375 62.296875 
z
" id="Nimbus_Sans_L_Regular-53"/>
       </defs>
       <use transform="scale(0.996264)" xlink:href="#Nimbus_Sans_L_Regular-48"/>
       <use transform="translate(55.391677 0)scale(0.996264)" xlink:href="#Nimbus_Sans_L_Regular-49"/>
       <use transform="translate(110.783354 0)scale(0.996264)" xlink:href="#Nimbus_Sans_L_Regular-45"/>
       <use transform="translate(143.958584 0)scale(0.996264)" xlink:href="#Nimbus_Sans_L_Regular-49"/>
       <use transform="translate(199.350261 0)scale(0.996264)" xlink:href="#Nimbus_Sans_L_Regular-53"/>
      </g>
     </g>
    </g>
    <g id="xtick_3">
     <g id="line2d_3">
      <g>
       <use style="stroke:#000000;stroke-width:0.8;" x="162.953583" xlink:href="#m66f627454d" y="281.952"/>
      </g>
     </g>
     <g id="text_3">
      <!-- 01-22 -->
      <g transform="translate(152.763904 296.730656)scale(0.08 -0.08)">
       <defs>
        <path d="M 50.59375 8.6875 
L 13.296875 8.6875 
C 14.203125 14.5 17.40625 18.203125 26.09375 23.328125 
L 36.09375 28.734375 
C 46 34.140625 51.09375 41.453125 51.09375 50.171875 
C 51.09375 56.078125 48.703125 61.59375 44.5 65.390625 
C 40.296875 69.1875 35.09375 71 28.40625 71 
C 19.40625 71 12.703125 67.796875 8.796875 61.796875 
C 6.296875 57.984375 5.203125 53.578125 5 46.359375 
L 13.796875 46.359375 
C 14.09375 51.171875 14.703125 54.078125 15.90625 56.375 
C 18.203125 60.6875 22.796875 63.296875 28.09375 63.296875 
C 36.09375 63.296875 42.09375 57.578125 42.09375 49.96875 
C 42.09375 44.359375 38.796875 39.546875 32.5 35.9375 
L 23.296875 30.734375 
C 8.5 22.3125 4.203125 15.609375 3.40625 0 
L 50.59375 0 
z
" id="Nimbus_Sans_L_Regular-50"/>
       </defs>
       <use transform="scale(0.996264)" xlink:href="#Nimbus_Sans_L_Regular-48"/>
       <use transform="translate(55.391677 0)scale(0.996264)" xlink:href="#Nimbus_Sans_L_Regular-49"/>
       <use transform="translate(110.783354 0)scale(0.996264)" xlink:href="#Nimbus_Sans_L_Regular-45"/>
       <use transform="translate(143.958584 0)scale(0.996264)" xlink:href="#Nimbus_Sans_L_Regular-50"/>
       <use transform="translate(199.350261 0)scale(0.996264)" xlink:href="#Nimbus_Sans_L_Regular-50"/>
      </g>
     </g>
    </g>
    <g id="xtick_4">
     <g id="line2d_4">
      <g>
       <use style="stroke:#000000;stroke-width:0.8;" x="226.611337" xlink:href="#m66f627454d" y="281.952"/>
      </g>
     </g>
     <g id="text_4">
      <!-- 02-01 -->
      <g transform="translate(216.421658 296.730656)scale(0.08 -0.08)">
       <use transform="scale(0.996264)" xlink:href="#Nimbus_Sans_L_Regular-48"/>
       <use transform="translate(55.391677 0)scale(0.996264)" xlink:href="#Nimbus_Sans_L_Regular-50"/>
       <use transform="translate(110.783354 0)scale(0.996264)" xlink:href="#Nimbus_Sans_L_Regular-45"/>
       <use transform="translate(143.958584 0)scale(0.996264)" xlink:href="#Nimbus_Sans_L_Regular-48"/>
       <use transform="translate(199.350261 0)scale(0.996264)" xlink:href="#Nimbus_Sans_L_Regular-49"/>
      </g>
     </g>
    </g>
    <g id="xtick_5">
     <g id="line2d_5">
      <g>
       <use style="stroke:#000000;stroke-width:0.8;" x="271.171765" xlink:href="#m66f627454d" y="281.952"/>
      </g>
     </g>
     <g id="text_5">
      <!-- 02-08 -->
      <g transform="translate(260.982086 296.730656)scale(0.08 -0.08)">
       <use transform="scale(0.996264)" xlink:href="#Nimbus_Sans_L_Regular-48"/>
       <use transform="translate(55.391677 0)scale(0.996264)" xlink:href="#Nimbus_Sans_L_Regular-50"/>
       <use transform="translate(110.783354 0)scale(0.996264)" xlink:href="#Nimbus_Sans_L_Regular-45"/>
       <use transform="translate(143.958584 0)scale(0.996264)" xlink:href="#Nimbus_Sans_L_Regular-48"/>
       <use transform="translate(199.350261 0)scale(0.996264)" xlink:href="#Nimbus_Sans_L_Regular-56"/>
      </g>
     </g>
    </g>
    <g id="xtick_6">
     <g id="line2d_6">
      <g>
       <use style="stroke:#000000;stroke-width:0.8;" x="315.732193" xlink:href="#m66f627454d" y="281.952"/>
      </g>
     </g>
     <g id="text_6">
      <!-- 02-15 -->
      <g transform="translate(305.542514 296.730656)scale(0.08 -0.08)">
       <use transform="scale(0.996264)" xlink:href="#Nimbus_Sans_L_Regular-48"/>
       <use transform="translate(55.391677 0)scale(0.996264)" xlink:href="#Nimbus_Sans_L_Regular-50"/>
       <use transform="translate(110.783354 0)scale(0.996264)" xlink:href="#Nimbus_Sans_L_Regular-45"/>
       <use transform="translate(143.958584 0)scale(0.996264)" xlink:href="#Nimbus_Sans_L_Regular-49"/>
       <use transform="translate(199.350261 0)scale(0.996264)" xlink:href="#Nimbus_Sans_L_Regular-53"/>
      </g>
     </g>
    </g>
    <g id="xtick_7">
     <g id="line2d_7">
      <g>
       <use style="stroke:#000000;stroke-width:0.8;" x="360.29262" xlink:href="#m66f627454d" y="281.952"/>
      </g>
     </g>
     <g id="text_7">
      <!-- 02-22 -->
      <g transform="translate(350.102942 296.730656)scale(0.08 -0.08)">
       <use transform="scale(0.996264)" xlink:href="#Nimbus_Sans_L_Regular-48"/>
       <use transform="translate(55.391677 0)scale(0.996264)" xlink:href="#Nimbus_Sans_L_Regular-50"/>
       <use transform="translate(110.783354 0)scale(0.996264)" xlink:href="#Nimbus_Sans_L_Regular-45"/>
       <use transform="translate(143.958584 0)scale(0.996264)" xlink:href="#Nimbus_Sans_L_Regular-50"/>
       <use transform="translate(199.350261 0)scale(0.996264)" xlink:href="#Nimbus_Sans_L_Regular-50"/>
      </g>
     </g>
    </g>
    <g id="xtick_8">
     <g id="line2d_8">
      <g>
       <use style="stroke:#000000;stroke-width:0.8;" x="404.853048" xlink:href="#m66f627454d" y="281.952"/>
      </g>
     </g>
     <g id="text_8">
      <!-- 03-01 -->
      <g transform="translate(394.663369 296.730656)scale(0.08 -0.08)">
       <defs>
        <path d="M 22.09375 32.703125 
L 23.203125 32.703125 
L 26.90625 32.796875 
C 36.59375 32.796875 41.59375 28.421875 41.59375 19.9375 
C 41.59375 11.078125 36.09375 5.796875 26.90625 5.796875 
C 17.296875 5.796875 12.59375 10.578125 12 20.84375 
L 3.203125 20.84375 
C 3.59375 15.15625 4.59375 11.46875 6.296875 8.28125 
C 9.90625 1.5 16.90625 -2 26.59375 -2 
C 41.203125 -2 50.59375 6.6875 50.59375 20.046875 
C 50.59375 29.015625 47.09375 34 38.59375 36.890625 
C 45.203125 39.46875 48.5 44.453125 48.5 51.53125 
C 48.5 63.6875 40.40625 71 26.90625 71 
C 12.59375 71 5 63.1875 4.703125 48.140625 
L 13.5 48.140625 
C 13.59375 52.4375 14 54.828125 15.09375 57.015625 
C 17.09375 60.90625 21.5 63.296875 27 63.296875 
C 34.796875 63.296875 39.5 58.703125 39.5 51.234375 
C 39.5 46.25 37.703125 43.265625 33.796875 41.671875 
C 31.40625 40.671875 28.296875 40.265625 22.09375 40.171875 
z
" id="Nimbus_Sans_L_Regular-51"/>
       </defs>
       <use transform="scale(0.996264)" xlink:href="#Nimbus_Sans_L_Regular-48"/>
       <use transform="translate(55.391677 0)scale(0.996264)" xlink:href="#Nimbus_Sans_L_Regular-51"/>
       <use transform="translate(110.783354 0)scale(0.996264)" xlink:href="#Nimbus_Sans_L_Regular-45"/>
       <use transform="translate(143.958584 0)scale(0.996264)" xlink:href="#Nimbus_Sans_L_Regular-48"/>
       <use transform="translate(199.350261 0)scale(0.996264)" xlink:href="#Nimbus_Sans_L_Regular-49"/>
      </g>
     </g>
    </g>
    <g id="text_9">
     <!-- Date -->
     <g transform="translate(226.902031 308.674758)scale(0.088 -0.088)">
      <defs>
       <path d="M 8.90625 0 
L 37 0 
C 55.40625 0 66.703125 13.796875 66.703125 36.546875 
C 66.703125 59.1875 55.5 73 37 73 
L 8.90625 73 
z
M 18.203125 8.1875 
L 18.203125 64.796875 
L 35.40625 64.796875 
C 49.796875 64.796875 57.40625 55.078125 57.40625 36.4375 
C 57.40625 18.015625 49.796875 8.1875 35.40625 8.1875 
z
" id="Nimbus_Sans_L_Regular-68"/>
       <path d="M 53.5 5.1875 
C 52.59375 5 52.203125 5 51.703125 5 
C 48.796875 5 47.203125 6.484375 47.203125 9.078125 
L 47.203125 39.71875 
C 47.203125 48.984375 40.40625 54 27.5 54 
C 19.90625 54 13.59375 51.796875 10.09375 47.890625 
C 7.703125 45.203125 6.703125 42.21875 6.5 37.03125 
L 14.90625 37.03125 
C 15.59375 43.40625 19.40625 46.296875 27.203125 46.296875 
C 34.703125 46.296875 38.90625 43.5 38.90625 38.53125 
L 38.90625 36.34375 
C 38.90625 32.859375 36.796875 31.359375 30.203125 30.5625 
C 18.40625 29.078125 16.59375 28.671875 13.40625 27.390625 
C 7.296875 24.890625 4.203125 20.21875 4.203125 13.453125 
C 4.203125 4 10.796875 -2 21.40625 -2 
C 28 -2 33.296875 0.296875 39.203125 5.6875 
C 39.796875 0.390625 42.40625 -2 47.796875 -2 
C 49.5 -2 50.796875 -1.8125 53.5 -1.109375 
z
M 38.90625 16.734375 
C 38.90625 13.953125 38.09375 12.265625 35.59375 9.96875 
C 32.203125 6.890625 28.09375 5.296875 23.203125 5.296875 
C 16.703125 5.296875 12.90625 8.375 12.90625 13.65625 
C 12.90625 19.125 16.59375 21.90625 25.5 23.203125 
C 34.296875 24.40625 36.09375 24.796875 38.90625 26.09375 
z
" id="Nimbus_Sans_L_Regular-97"/>
       <path d="M 25.40625 52 
L 16.796875 52 
L 16.796875 66.390625 
L 8.5 66.390625 
L 8.5 52 
L 1.40625 52 
L 1.40625 45.1875 
L 8.5 45.1875 
L 8.5 6.28125 
C 8.5 1 12.09375 -2 18.59375 -2 
C 20.59375 -2 22.59375 -1.8125 25.40625 -1.3125 
L 25.40625 5.6875 
C 24.296875 5.390625 23 5.296875 21.40625 5.296875 
C 17.796875 5.296875 16.796875 6.28125 16.796875 9.90625 
L 16.796875 45.1875 
L 25.40625 45.1875 
z
" id="Nimbus_Sans_L_Regular-116"/>
       <path d="M 51.296875 23.1875 
C 51.296875 31.21875 50.703125 36.109375 49.203125 40.078125 
C 45.796875 48.796875 37.796875 54 28 54 
C 13.40625 54 4 42.71875 4 25.296875 
C 4 8.515625 13.09375 -2 27.796875 -2 
C 39.796875 -2 48.09375 4.796875 50.203125 15.90625 
L 41.796875 15.90625 
C 39.5 9.1875 34.796875 5.6875 28.09375 5.6875 
C 22.796875 5.6875 18.296875 8.03125 15.5 12.296875 
C 13.5 15.21875 12.796875 18.140625 12.703125 23.1875 
z
M 12.90625 30 
C 13.59375 39.875 19.5 46.296875 27.90625 46.296875 
C 36.09375 46.296875 42.40625 39.359375 42.40625 30.609375 
C 42.40625 30.40625 42.40625 30.203125 42.296875 30 
z
" id="Nimbus_Sans_L_Regular-101"/>
      </defs>
      <use transform="scale(0.996264)" xlink:href="#Nimbus_Sans_L_Regular-68"/>
      <use transform="translate(71.929985 0)scale(0.996264)" xlink:href="#Nimbus_Sans_L_Regular-97"/>
      <use transform="translate(127.321662 0)scale(0.996264)" xlink:href="#Nimbus_Sans_L_Regular-116"/>
      <use transform="translate(155.016831 0)scale(0.996264)" xlink:href="#Nimbus_Sans_L_Regular-101"/>
     </g>
    </g>
   </g>
   <g id="matplotlib.axis_2">
    <g id="ytick_1">
     <g id="line2d_9">
      <defs>
       <path d="M 0 0 
L -3.5 0 
" id="m0fea01ed06" style="stroke:#000000;stroke-width:0.8;"/>
      </defs>
      <g>
       <use style="stroke:#000000;stroke-width:0.8;" x="57.6" xlink:href="#m0fea01ed06" y="281.952"/>
      </g>
     </g>
     <g id="text_10">
      <!-- $\mathdefault{0.0}$ -->
      <g transform="translate(37.67931 284.791328)scale(0.08 -0.08)">
       <defs>
        <path d="M 42 31.84375 
C 42 37.96875 41.90625 48.421875 37.703125 56.453125 
C 34 63.484375 28.09375 66 22.90625 66 
C 18.09375 66 12 63.78125 8.203125 56.5625 
C 4.203125 49.015625 3.796875 39.671875 3.796875 31.84375 
C 3.796875 26.109375 3.90625 17.375 7 9.734375 
C 11.296875 -0.609375 19 -2 22.90625 -2 
C 27.5 -2 34.5 -0.109375 38.59375 9.4375 
C 41.59375 16.375 42 24.5 42 31.84375 
z
M 22.90625 -0.40625 
C 16.5 -0.40625 12.703125 5.125 11.296875 12.75 
C 10.203125 18.6875 10.203125 27.328125 10.203125 32.953125 
C 10.203125 40.6875 10.203125 47.109375 11.5 53.234375 
C 13.40625 61.78125 19 64.390625 22.90625 64.390625 
C 27 64.390625 32.296875 61.671875 34.203125 53.4375 
C 35.5 47.71875 35.59375 40.984375 35.59375 32.953125 
C 35.59375 26.421875 35.59375 18.375 34.40625 12.453125 
C 32.296875 1.5 26.40625 -0.40625 22.90625 -0.40625 
z
" id="CMR17-48"/>
        <path d="M 18.40625 4.796875 
C 18.40625 7.6875 16 9.6875 13.59375 9.6875 
C 10.703125 9.6875 8.703125 7.296875 8.703125 4.890625 
C 8.703125 2 11.09375 0 13.5 0 
C 16.40625 0 18.40625 2.390625 18.40625 4.796875 
z
" id="CMMI12-58"/>
       </defs>
       <use transform="scale(0.996264)" xlink:href="#CMR17-48"/>
       <use transform="translate(45.690477 0)scale(0.996264)" xlink:href="#CMMI12-58"/>
       <use transform="translate(72.787654 0)scale(0.996264)" xlink:href="#CMR17-48"/>
      </g>
     </g>
    </g>
    <g id="ytick_2">
     <g id="line2d_10">
      <g>
       <use style="stroke:#000000;stroke-width:0.8;" x="57.6" xlink:href="#m0fea01ed06" y="229.806739"/>
      </g>
     </g>
     <g id="text_11">
      <!-- $\mathdefault{0.5}$ -->
      <g transform="translate(37.67931 232.646067)scale(0.08 -0.08)">
       <defs>
        <path d="M 11.40625 58.59375 
C 12.40625 58.1875 16.5 56.890625 20.703125 56.890625 
C 30 56.890625 35.09375 61.890625 38 64.6875 
C 38 65.484375 38 66 37.40625 66 
C 37.296875 66 37.09375 66 36.296875 65.59375 
C 32.796875 64.09375 28.703125 63 23.703125 63 
C 20.703125 63 16.203125 63.359375 11.296875 65.484375 
C 10.203125 66 10 66 9.90625 66 
C 9.40625 66 9.296875 65.890625 9.296875 63.90625 
L 9.296875 34.859375 
C 9.296875 33.015625 9.296875 32.5 10.296875 32.5 
C 10.796875 32.5 11 32.703125 11.5 33.421875 
C 14.703125 38.046875 19.09375 40 24.09375 40 
C 27.59375 40 35.09375 37.734375 35.09375 20.203125 
C 35.09375 16.984375 35.09375 11.1875 32.09375 6.59375 
C 29.59375 2.484375 25.703125 0.390625 21.40625 0.390625 
C 14.796875 0.390625 8.09375 4.984375 6.296875 12.6875 
C 6.703125 12.59375 7.5 12.390625 7.90625 12.390625 
C 9.203125 12.390625 11.703125 13.09375 11.703125 16.1875 
C 11.703125 18.890625 9.796875 20 7.90625 20 
C 5.59375 20 4.09375 18.59375 4.09375 15.796875 
C 4.09375 7.09375 11 -2 21.59375 -2 
C 31.90625 -2 41.703125 6.890625 41.703125 19.796875 
C 41.703125 32.09375 33.90625 41.59375 24.203125 41.59375 
C 19.09375 41.59375 14.796875 39.6875 11.40625 36 
z
" id="CMR17-53"/>
       </defs>
       <use transform="scale(0.996264)" xlink:href="#CMR17-48"/>
       <use transform="translate(45.690477 0)scale(0.996264)" xlink:href="#CMMI12-58"/>
       <use transform="translate(72.787654 0)scale(0.996264)" xlink:href="#CMR17-53"/>
      </g>
     </g>
    </g>
    <g id="ytick_3">
     <g id="line2d_11">
      <g>
       <use style="stroke:#000000;stroke-width:0.8;" x="57.6" xlink:href="#m0fea01ed06" y="177.661478"/>
      </g>
     </g>
     <g id="text_12">
      <!-- $\mathdefault{1.0}$ -->
      <g transform="translate(37.67931 180.500806)scale(0.08 -0.08)">
       <defs>
        <path d="M 26.59375 63.796875 
C 26.59375 65.890625 26.5 66 25.09375 66 
C 21.203125 61.359375 15.296875 59.890625 9.703125 59.6875 
C 9.40625 59.6875 8.90625 59.6875 8.796875 59.5 
C 8.703125 59.296875 8.703125 59.09375 8.703125 57 
C 11.796875 57 17 57.59375 21 59.984375 
L 21 7.296875 
C 21 3.796875 20.796875 2.59375 12.203125 2.59375 
L 9.203125 2.59375 
L 9.203125 0 
C 14 0.09375 19 0.1875 23.796875 0.1875 
C 28.59375 0.1875 33.59375 0.09375 38.40625 0 
L 38.40625 2.59375 
L 35.40625 2.59375 
C 26.796875 2.59375 26.59375 3.6875 26.59375 7.296875 
z
" id="CMR17-49"/>
       </defs>
       <use transform="scale(0.996264)" xlink:href="#CMR17-49"/>
       <use transform="translate(45.690477 0)scale(0.996264)" xlink:href="#CMMI12-58"/>
       <use transform="translate(72.787654 0)scale(0.996264)" xlink:href="#CMR17-48"/>
      </g>
     </g>
    </g>
    <g id="ytick_4">
     <g id="line2d_12">
      <g>
       <use style="stroke:#000000;stroke-width:0.8;" x="57.6" xlink:href="#m0fea01ed06" y="125.516217"/>
      </g>
     </g>
     <g id="text_13">
      <!-- $\mathdefault{1.5}$ -->
      <g transform="translate(37.67931 128.355545)scale(0.08 -0.08)">
       <use transform="scale(0.996264)" xlink:href="#CMR17-49"/>
       <use transform="translate(45.690477 0)scale(0.996264)" xlink:href="#CMMI12-58"/>
       <use transform="translate(72.787654 0)scale(0.996264)" xlink:href="#CMR17-53"/>
      </g>
     </g>
    </g>
    <g id="ytick_5">
     <g id="line2d_13">
      <g>
       <use style="stroke:#000000;stroke-width:0.8;" x="57.6" xlink:href="#m0fea01ed06" y="73.370956"/>
      </g>
     </g>
     <g id="text_14">
      <!-- $\mathdefault{2.0}$ -->
      <g transform="translate(37.67931 76.210284)scale(0.08 -0.08)">
       <defs>
        <path d="M 41.703125 15.46875 
L 39.90625 15.46875 
C 38.90625 8.390625 38.09375 7.1875 37.703125 6.59375 
C 37.203125 5.796875 30 5.796875 28.59375 5.796875 
L 9.40625 5.796875 
C 13 9.6875 20 16.765625 28.5 24.9375 
C 34.59375 30.71875 41.703125 37.5 41.703125 47.390625 
C 41.703125 59.1875 32.296875 66 21.796875 66 
C 10.796875 66 4.09375 56.296875 4.09375 47.296875 
C 4.09375 43.390625 7 42.890625 8.203125 42.890625 
C 9.203125 42.890625 12.203125 43.484375 12.203125 46.984375 
C 12.203125 50.09375 9.59375 51 8.203125 51 
C 7.59375 51 7 50.890625 6.59375 50.6875 
C 8.5 59.1875 14.296875 63.390625 20.40625 63.390625 
C 29.09375 63.390625 34.796875 56.5 34.796875 47.390625 
C 34.796875 38.703125 29.703125 31.21875 24 24.734375 
L 4.09375 2.296875 
L 4.09375 0 
L 39.296875 0 
z
" id="CMR17-50"/>
       </defs>
       <use transform="scale(0.996264)" xlink:href="#CMR17-50"/>
       <use transform="translate(45.690477 0)scale(0.996264)" xlink:href="#CMMI12-58"/>
       <use transform="translate(72.787654 0)scale(0.996264)" xlink:href="#CMR17-48"/>
      </g>
     </g>
    </g>
    <g id="text_15">
     <!-- Cumulative test positives -->
     <g transform="translate(31.811969 208.198186)rotate(-90)scale(0.088 -0.088)">
      <defs>
       <path d="M 66.203125 50.296875 
C 63.296875 66.1875 54.09375 74 38.09375 74 
C 28.296875 74 20.40625 70.890625 15 64.90625 
C 8.40625 57.75 4.796875 47.421875 4.796875 35.6875 
C 4.796875 23.78125 8.5 13.546875 15.40625 6.484375 
C 21 0.6875 28.203125 -2 37.703125 -2 
C 55.5 -2 65.5 7.578125 67.703125 26.75 
L 58.09375 26.75 
C 57.296875 21.78125 56.296875 18.40625 54.796875 15.53125 
C 51.796875 9.5625 45.59375 6.1875 37.796875 6.1875 
C 23.296875 6.1875 14.09375 17.71875 14.09375 35.796875 
C 14.09375 54.375 22.90625 65.796875 37 65.796875 
C 42.90625 65.796875 48.40625 64 51.40625 61.21875 
C 54.09375 58.734375 55.59375 55.65625 56.703125 50.296875 
z
" id="Nimbus_Sans_L_Regular-67"/>
       <path d="M 48.203125 0.296875 
L 48.203125 52 
L 39.90625 52 
L 39.90625 22.71875 
C 39.90625 12.1875 34.296875 5.296875 25.59375 5.296875 
C 19 5.296875 14.796875 9.234375 14.796875 15.4375 
L 14.796875 52 
L 6.5 52 
L 6.5 12.1875 
C 6.5 3.59375 13 -2 23.203125 -2 
C 30.90625 -2 35.796875 0.6875 40.703125 7.5625 
L 40.703125 0.296875 
z
" id="Nimbus_Sans_L_Regular-117"/>
       <path d="M 7 52 
L 7 0 
L 15.40625 0 
L 15.40625 32.640625 
C 15.40625 40.578125 20.90625 46.6875 27.703125 46.6875 
C 33.90625 46.6875 37.40625 42.875 37.40625 36.171875 
L 37.40625 0 
L 45.796875 0 
L 45.796875 32.953125 
C 45.796875 40.578125 51.296875 46.6875 58.09375 46.6875 
C 64.203125 46.6875 67.796875 42.78125 67.796875 36.171875 
L 67.796875 0 
L 76.203125 0 
L 76.203125 39.375 
C 76.203125 48.796875 70.796875 54 61 54 
C 54 54 49.796875 51.890625 44.90625 45.984375 
C 41.796875 51.59375 37.59375 54 30.796875 54 
C 23.796875 54 19.203125 51.390625 14.703125 45.09375 
L 14.703125 52 
z
" id="Nimbus_Sans_L_Regular-109"/>
       <path d="M 15.203125 73 
L 6.796875 73 
L 6.796875 0 
L 15.203125 0 
z
" id="Nimbus_Sans_L_Regular-108"/>
       <path d="M 15 52.46875 
L 6.703125 52.46875 
L 6.703125 0 
L 15 0 
z
M 15 73 
L 6.59375 73 
L 6.59375 62.484375 
L 15 62.484375 
z
" id="Nimbus_Sans_L_Regular-105"/>
       <path d="M 28.5 0 
L 48.59375 52 
L 39.203125 52 
L 24.40625 9.828125 
L 10.40625 52 
L 1 52 
L 19.40625 0 
z
" id="Nimbus_Sans_L_Regular-118"/>
       <path d="M 43.796875 37.9375 
C 43.703125 48.1875 36.90625 54 24.796875 54 
C 12.59375 54 4.703125 47.6875 4.703125 38.03125 
C 4.703125 29.875 8.90625 25.984375 21.296875 23 
L 29.09375 21.109375 
C 34.90625 19.71875 37.203125 17.640625 37.203125 13.859375 
C 37.203125 8.96875 32.296875 5.6875 25 5.6875 
C 20.5 5.6875 16.703125 6.984375 14.59375 9.171875 
C 13.296875 10.671875 12.703125 12.15625 12.203125 15.84375 
L 3.40625 15.84375 
C 3.796875 3.796875 10.59375 -2 24.296875 -2 
C 37.5 -2 45.90625 4.5 45.90625 14.546875 
C 45.90625 22.3125 41.5 26.59375 31.09375 29.078125 
L 23.09375 30.96875 
C 16.296875 32.5625 13.40625 34.75 13.40625 38.421875 
C 13.40625 43.203125 17.703125 46.296875 24.5 46.296875 
C 31.203125 46.296875 34.796875 43.40625 35 37.9375 
z
" id="Nimbus_Sans_L_Regular-115"/>
       <path d="M 5.40625 -22 
L 13.796875 -22 
L 13.796875 5.796875 
C 18.203125 0.390625 23.09375 -2 29.90625 -2 
C 43.40625 -2 52.296875 8.875 52.296875 25.5 
C 52.296875 43 43.703125 54 29.796875 54 
C 22.703125 54 17 50.796875 13.09375 44.59375 
L 13.09375 52.484375 
L 5.40625 52.484375 
z
M 28.40625 46.1875 
C 37.59375 46.1875 43.59375 38.125 43.59375 25.6875 
C 43.59375 13.859375 37.5 5.796875 28.40625 5.796875 
C 19.59375 5.796875 13.796875 13.75 13.796875 25.984375 
C 13.796875 38.234375 19.59375 46.1875 28.40625 46.1875 
z
" id="Nimbus_Sans_L_Regular-112"/>
       <path d="M 27.203125 54 
C 12.5 54 3.59375 43.5 3.59375 25.984375 
C 3.59375 8.484375 12.40625 -2 27.296875 -2 
C 42 -2 51 8.484375 51 25.59375 
C 51 43.609375 42.296875 54 27.203125 54 
z
M 27.296875 46.296875 
C 36.703125 46.296875 42.296875 38.625 42.296875 25.6875 
C 42.296875 13.453125 36.5 5.6875 27.296875 5.6875 
C 18 5.6875 12.296875 13.359375 12.296875 25.984375 
C 12.296875 38.53125 18 46.296875 27.296875 46.296875 
z
" id="Nimbus_Sans_L_Regular-111"/>
      </defs>
      <use transform="scale(0.996264)" xlink:href="#Nimbus_Sans_L_Regular-67"/>
      <use transform="translate(71.929985 0)scale(0.996264)" xlink:href="#Nimbus_Sans_L_Regular-117"/>
      <use transform="translate(127.321662 0)scale(0.996264)" xlink:href="#Nimbus_Sans_L_Regular-109"/>
      <use transform="translate(209.313995 0)scale(0.996264)" xlink:href="#Nimbus_Sans_L_Regular-117"/>
      <use transform="translate(264.705672 0)scale(0.996264)" xlink:href="#Nimbus_Sans_L_Regular-108"/>
      <use transform="translate(286.822457 0)scale(0.996264)" xlink:href="#Nimbus_Sans_L_Regular-97"/>
      <use transform="translate(342.214134 0)scale(0.996264)" xlink:href="#Nimbus_Sans_L_Regular-116"/>
      <use transform="translate(369.909303 0)scale(0.996264)" xlink:href="#Nimbus_Sans_L_Regular-105"/>
      <use transform="translate(392.026087 0)scale(0.996264)" xlink:href="#Nimbus_Sans_L_Regular-118"/>
      <use transform="translate(439.348658 0)scale(0.996264)" xlink:href="#Nimbus_Sans_L_Regular-101"/>
      <use transform="translate(522.435505 0)scale(0.996264)" xlink:href="#Nimbus_Sans_L_Regular-116"/>
      <use transform="translate(550.130675 0)scale(0.996264)" xlink:href="#Nimbus_Sans_L_Regular-101"/>
      <use transform="translate(605.522351 0)scale(0.996264)" xlink:href="#Nimbus_Sans_L_Regular-115"/>
      <use transform="translate(655.335552 0)scale(0.996264)" xlink:href="#Nimbus_Sans_L_Regular-116"/>
      <use transform="translate(710.725891 0)scale(0.996264)" xlink:href="#Nimbus_Sans_L_Regular-112"/>
      <use transform="translate(766.117568 0)scale(0.996264)" xlink:href="#Nimbus_Sans_L_Regular-111"/>
      <use transform="translate(821.509245 0)scale(0.996264)" xlink:href="#Nimbus_Sans_L_Regular-115"/>
      <use transform="translate(871.322446 0)scale(0.996264)" xlink:href="#Nimbus_Sans_L_Regular-105"/>
      <use transform="translate(893.43923 0)scale(0.996264)" xlink:href="#Nimbus_Sans_L_Regular-116"/>
      <use transform="translate(921.1344 0)scale(0.996264)" xlink:href="#Nimbus_Sans_L_Regular-105"/>
      <use transform="translate(943.251184 0)scale(0.996264)" xlink:href="#Nimbus_Sans_L_Regular-118"/>
      <use transform="translate(990.573755 0)scale(0.996264)" xlink:href="#Nimbus_Sans_L_Regular-101"/>
      <use transform="translate(1045.965432 0)scale(0.996264)" xlink:href="#Nimbus_Sans_L_Regular-115"/>
     </g>
    </g>
    <g id="text_16">
     <!-- $\times\mathdefault{10^{6}}\mathdefault{}$ -->
     <g transform="translate(57.6 35.016)scale(0.08 -0.08)">
      <defs>
       <path d="M 38.90625 27.734375 
L 18.90625 47.59375 
C 17.703125 48.796875 17.5 49 16.703125 49 
C 15.703125 49 14.703125 48.09375 14.703125 47 
C 14.703125 46.296875 14.90625 46.09375 16 45 
L 36 24.9375 
L 16 4.890625 
C 14.90625 3.796875 14.703125 3.59375 14.703125 2.890625 
C 14.703125 1.796875 15.703125 0.890625 16.703125 0.890625 
C 17.5 0.890625 17.703125 1.09375 18.90625 2.296875 
L 38.796875 22.15625 
L 59.5 1.484375 
C 59.703125 1.390625 60.40625 0.890625 61 0.890625 
C 62.203125 0.890625 63 1.796875 63 2.890625 
C 63 3.09375 63 3.484375 62.703125 3.984375 
C 62.59375 4.1875 46.703125 19.859375 41.703125 24.9375 
L 60 43.203125 
C 60.5 43.796875 62 45.09375 62.5 45.703125 
C 62.59375 45.890625 63 46.296875 63 47 
C 63 48.09375 62.203125 49 61 49 
C 60.203125 49 59.796875 48.59375 58.703125 47.5 
z
" id="CMSY10-2"/>
       <path d="M 10.59375 34.34375 
C 10.59375 58 21.796875 63.6875 28.296875 63.6875 
C 30.40625 63.6875 35.5 63.265625 37.5 59.09375 
C 35.90625 59.09375 32.90625 59.09375 32.90625 55.59375 
C 32.90625 52.890625 35.09375 52 36.5 52 
C 37.40625 52 40.09375 52.390625 40.09375 55.796875 
C 40.09375 62.296875 35.09375 66 28.203125 66 
C 16.296875 66 3.796875 53.296875 3.796875 31.421875 
C 3.796875 4.015625 15.09375 -2 23.09375 -2 
C 32.796875 -2 42 6.734375 42 20.234375 
C 42 32.828125 33.90625 42 23.703125 42 
C 17.59375 42 13.09375 37.96875 10.59375 30.921875 
z
M 23.09375 0.390625 
C 10.796875 0.390625 10.796875 18.9375 10.796875 22.65625 
C 10.796875 29.90625 14.203125 40.390625 23.5 40.390625 
C 25.203125 40.390625 30.09375 40.390625 33.40625 33.4375 
C 35.203125 29.515625 35.203125 25.375 35.203125 20.34375 
C 35.203125 14.90625 35.203125 10.875 33.09375 6.84375 
C 30.90625 2.703125 27.703125 0.390625 23.09375 0.390625 
z
" id="CMR17-54"/>
      </defs>
      <use transform="scale(0.996264)" xlink:href="#CMSY10-2"/>
      <use transform="translate(77.487468 0)scale(0.996264)" xlink:href="#CMR17-49"/>
      <use transform="translate(123.177945 0)scale(0.996264)" xlink:href="#CMR17-48"/>
      <use transform="translate(168.868422 36.153639)scale(0.697382)" xlink:href="#CMR17-54"/>
     </g>
    </g>
   </g>
   <g id="line2d_14">
    <path clip-path="url(#p799a3d9b92)" d="M 73.832727 231.857299 
L 80.198503 231.319577 
L 86.564278 230.596114 
L 92.930053 229.583244 
L 99.295829 228.613864 
L 105.661604 227.626233 
L 112.02738 226.656852 
L 118.393155 225.777996 
L 124.75893 225.247366 
L 131.124706 224.658333 
L 137.490481 223.603539 
L 143.856257 222.70445 
L 150.222032 221.832581 
L 156.587807 221.074389 
L 162.953583 220.303891 
L 169.319358 220.048692 
L 175.685134 219.532975 
L 182.050909 218.623145 
L 188.416684 217.811035 
L 194.78246 217.005286 
L 201.148235 216.262737 
L 207.514011 215.56274 
L 213.879786 215.291688 
L 220.245561 214.752924 
L 226.611337 213.831934 
L 232.977112 213.003554 
L 239.342888 212.23462 
L 245.708663 211.485919 
L 252.074439 210.805319 
L 258.440214 210.531139 
L 264.805989 210.055157 
L 271.171765 209.24409 
L 277.53754 208.606979 
L 283.903316 208.020032 
L 290.269091 207.502438 
L 296.634866 207.02145 
L 303.000642 206.826948 
L 309.366417 206.467354 
L 315.732193 205.930571 
L 322.097968 205.458865 
L 328.463743 205.039409 
L 334.829519 204.700986 
L 341.195294 204.313025 
L 347.56107 204.183809 
L 353.926845 203.868226 
L 360.29262 203.376913 
L 366.658396 202.919078 
L 373.024171 202.472506 
L 379.389947 202.081312 
L 385.755722 201.688867 
L 392.121497 201.54067 
L 398.487273 201.226443 
" style="fill:none;stroke:#924444;stroke-linecap:square;stroke-width:2;"/>
   </g>
   <g id="line2d_15">
    <path clip-path="url(#p799a3d9b92)" d="M 73.832727 231.361129 
L 80.198503 230.106755 
L 86.564278 228.102913 
L 92.930053 224.759916 
L 99.295829 220.869709 
L 105.661604 216.301851 
L 112.02738 211.072927 
L 118.393155 206.406992 
L 124.75893 202.881787 
L 131.124706 199.554717 
L 137.490481 194.055117 
L 143.856257 188.685355 
L 150.222032 183.304976 
L 156.587807 178.420849 
L 162.953583 173.217992 
L 169.319358 171.304293 
L 175.685134 167.894322 
L 182.050909 162.087152 
L 188.416684 156.710844 
L 194.78246 151.112357 
L 201.148235 145.95075 
L 207.514011 141.642283 
L 213.879786 140.146382 
L 220.245561 137.28539 
L 226.611337 132.937698 
L 232.977112 129.24408 
L 239.342888 126.109078 
L 245.708663 123.435596 
L 252.074439 121.105438 
L 258.440214 120.405566 
L 264.805989 119.275206 
L 271.171765 117.571872 
L 277.53754 116.222313 
L 283.903316 115.079491 
L 290.269091 114.067279 
L 296.634866 113.260611 
L 303.000642 112.992989 
L 309.366417 112.53839 
L 315.732193 111.91647 
L 322.097968 111.323934 
L 328.463743 110.855767 
L 334.829519 110.508227 
L 341.195294 110.123621 
L 347.56107 110.013761 
L 353.926845 109.757094 
L 360.29262 109.425458 
L 366.658396 109.102273 
L 373.024171 108.795196 
L 379.389947 108.533708 
L 385.755722 108.305218 
L 392.121497 108.22657 
L 398.487273 108.064781 
" style="fill:none;stroke:#74637c;stroke-dasharray:12.8,3.2,2,3.2;stroke-dashoffset:0;stroke-width:2;"/>
   </g>
   <g id="line2d_16">
    <path clip-path="url(#p799a3d9b92)" d="M 73.832727 232.70831 
L 80.198503 231.781829 
L 86.564278 230.766703 
L 92.930053 229.656694 
L 99.295829 228.445613 
L 105.661604 227.127435 
L 112.02738 225.696444 
L 118.393155 224.147371 
L 124.75893 222.475602 
L 131.124706 220.677419 
L 137.490481 218.750127 
L 143.856257 216.692298 
L 150.222032 214.503977 
L 156.587807 212.186875 
L 162.953583 209.744494 
L 169.319358 207.182358 
L 175.685134 204.508 
L 182.050909 201.730973 
L 188.416684 198.862802 
L 194.78246 195.916841 
L 201.148235 192.908061 
L 207.514011 189.85276 
L 213.879786 186.768256 
L 220.245561 183.672436 
L 226.611337 180.583371 
L 232.977112 177.518886 
L 239.342888 174.496155 
L 245.708663 171.531348 
L 252.074439 168.639279 
L 258.440214 165.833137 
L 264.805989 163.124334 
L 271.171765 160.522372 
L 277.53754 158.034805 
L 283.903316 155.667257 
L 290.269091 153.423546 
L 296.634866 151.305669 
L 303.000642 149.314082 
L 309.366417 147.447847 
L 315.732193 145.70482 
L 322.097968 144.081839 
L 328.463743 142.574932 
L 334.829519 141.179486 
L 341.195294 139.890349 
L 347.56107 138.702072 
L 353.926845 137.609003 
L 360.29262 136.605397 
L 366.658396 135.685513 
L 373.024171 134.843707 
L 379.389947 134.074444 
L 385.755722 133.372379 
L 392.121497 132.732399 
L 398.487273 132.149643 
" style="fill:none;stroke:#252525;stroke-dasharray:12.8,3.2,2,3.2;stroke-dashoffset:0;stroke-width:2;"/>
   </g>
   <g id="patch_3">
    <path d="M 57.6 281.952 
L 57.6 38.016 
" style="fill:none;stroke:#000000;stroke-linecap:square;stroke-linejoin:miter;stroke-width:2;"/>
   </g>
   <g id="patch_4">
    <path d="M 57.6 281.952 
L 414.72 281.952 
" style="fill:none;stroke:#000000;stroke-linecap:square;stroke-linejoin:miter;stroke-width:2;"/>
   </g>
   <g id="legend_1">
    <g id="patch_5">
     <path d="M 317.871042 78.724999 
L 409.12 78.724999 
Q 410.72 78.724999 410.72 77.124999 
L 410.72 43.616 
Q 410.72 42.016 409.12 42.016 
L 317.871042 42.016 
Q 316.271042 42.016 316.271042 43.616 
L 316.271042 77.124999 
Q 316.271042 78.724999 317.871042 78.724999 
z
" style="fill:#ffffff;opacity:0.8;stroke:#cccccc;stroke-linejoin:miter;stroke-width:0.24;"/>
    </g>
    <g id="line2d_17">
     <path d="M 319.471042 48.15475 
L 335.471042 48.15475 
" style="fill:none;stroke:#924444;stroke-linecap:square;stroke-width:2;"/>
    </g>
    <g id="line2d_18"/>
    <g id="text_17">
     <!-- Actual -->
     <g transform="translate(341.871042 50.95475)scale(0.08 -0.08)">
      <defs>
       <path d="M 47.40625 22 
L 54.90625 0 
L 65.296875 0 
L 39.703125 73 
L 27.703125 73 
L 1.703125 0 
L 11.59375 0 
L 19.296875 22 
z
M 44.796875 29.796875 
L 21.59375 29.796875 
L 33.59375 63 
z
" id="Nimbus_Sans_L_Regular-65"/>
       <path d="M 47.09375 34.953125 
C 46.703125 40.015625 45.59375 43.296875 43.59375 46.1875 
C 40 51.09375 33.703125 54 26.40625 54 
C 12.296875 54 3.09375 42.8125 3.09375 25.5 
C 3.09375 8.671875 12.09375 -2 26.296875 -2 
C 38.796875 -2 46.703125 5.5 47.703125 18.234375 
L 39.296875 18.234375 
C 37.90625 9.875 33.59375 5.6875 26.5 5.6875 
C 17.296875 5.6875 11.796875 13.15625 11.796875 25.5 
C 11.796875 38.53125 17.203125 46.296875 26.296875 46.296875 
C 33.296875 46.296875 37.703125 42.203125 38.703125 34.953125 
z
" id="Nimbus_Sans_L_Regular-99"/>
      </defs>
      <use transform="scale(0.996264)" xlink:href="#Nimbus_Sans_L_Regular-65"/>
      <use transform="translate(66.450031 0)scale(0.996264)" xlink:href="#Nimbus_Sans_L_Regular-99"/>
      <use transform="translate(116.263232 0)scale(0.996264)" xlink:href="#Nimbus_Sans_L_Regular-116"/>
      <use transform="translate(143.958401 0)scale(0.996264)" xlink:href="#Nimbus_Sans_L_Regular-117"/>
      <use transform="translate(199.350078 0)scale(0.996264)" xlink:href="#Nimbus_Sans_L_Regular-97"/>
      <use transform="translate(254.741755 0)scale(0.996264)" xlink:href="#Nimbus_Sans_L_Regular-108"/>
     </g>
    </g>
    <g id="line2d_19">
     <path d="M 319.471042 59.591083 
L 335.471042 59.591083 
" style="fill:none;stroke:#74637c;stroke-dasharray:12.8,3.2,2,3.2;stroke-dashoffset:0;stroke-width:2;"/>
    </g>
    <g id="line2d_20"/>
    <g id="text_18">
     <!-- Mean: Approach 1 -->
     <g transform="translate(341.871042 62.391083)scale(0.08 -0.08)">
      <defs>
       <path d="M 46.796875 0 
L 67.296875 61.171875 
L 67.296875 0 
L 76.09375 0 
L 76.09375 73 
L 63.203125 73 
L 42 9.40625 
L 20.40625 73 
L 7.5 73 
L 7.5 0 
L 16.296875 0 
L 16.296875 61.171875 
L 37 0 
z
" id="Nimbus_Sans_L_Regular-77"/>
       <path d="M 7 52 
L 7 0 
L 15.40625 0 
L 15.40625 28.671875 
C 15.40625 39.671875 21 46.6875 29.59375 46.6875 
C 36.203125 46.6875 40.40625 42.6875 40.40625 36.375 
L 40.40625 0 
L 48.703125 0 
L 48.703125 39.671875 
C 48.703125 48.390625 42.203125 54 32.09375 54 
C 24.296875 54 19.296875 50.984375 14.703125 43.6875 
L 14.703125 52 
z
" id="Nimbus_Sans_L_Regular-110"/>
       <path d="M 21.40625 10.390625 
L 11 10.390625 
L 11 0 
L 21.40625 0 
z
M 21.40625 52 
L 11 52 
L 11 41.59375 
L 21.40625 41.59375 
z
" id="Nimbus_Sans_L_Regular-58"/>
       <path d="M 6.90625 52 
L 6.90625 0 
L 15.296875 0 
L 15.296875 26.984375 
C 15.296875 34.421875 17.203125 39.28125 21.203125 42.15625 
C 23.796875 44.046875 26.296875 44.640625 32.09375 44.734375 
L 32.09375 53.1875 
C 30.703125 53.890625 30 54 28.90625 54 
C 23.5 54 19.40625 50.796875 14.59375 42.96875 
L 14.59375 52 
z
" id="Nimbus_Sans_L_Regular-114"/>
       <path d="M 7 73 
L 7 0 
L 15.296875 0 
L 15.296875 28.953125 
C 15.296875 39.671875 20.90625 46.6875 29.5 46.6875 
C 32.203125 46.6875 34.90625 45.78125 36.90625 44.28125 
C 39.296875 42.578125 40.296875 40.078125 40.296875 36.375 
L 40.296875 0 
L 48.59375 0 
L 48.59375 39.671875 
C 48.59375 48.484375 42.296875 54 32.09375 54 
C 24.703125 54 20.203125 51.6875 15.296875 45.28125 
L 15.296875 73 
z
" id="Nimbus_Sans_L_Regular-104"/>
      </defs>
      <use transform="scale(0.996264)" xlink:href="#Nimbus_Sans_L_Regular-77"/>
      <use transform="translate(82.98843 0)scale(0.996264)" xlink:href="#Nimbus_Sans_L_Regular-101"/>
      <use transform="translate(138.380107 0)scale(0.996264)" xlink:href="#Nimbus_Sans_L_Regular-97"/>
      <use transform="translate(193.771784 0)scale(0.996264)" xlink:href="#Nimbus_Sans_L_Regular-110"/>
      <use transform="translate(249.163461 0)scale(0.996264)" xlink:href="#Nimbus_Sans_L_Regular-58"/>
      <use transform="translate(311.128282 0)scale(0.996264)" xlink:href="#Nimbus_Sans_L_Regular-65"/>
      <use transform="translate(377.578314 0)scale(0.996264)" xlink:href="#Nimbus_Sans_L_Regular-112"/>
      <use transform="translate(432.96999 0)scale(0.996264)" xlink:href="#Nimbus_Sans_L_Regular-112"/>
      <use transform="translate(488.361667 0)scale(0.996264)" xlink:href="#Nimbus_Sans_L_Regular-114"/>
      <use transform="translate(521.536897 0)scale(0.996264)" xlink:href="#Nimbus_Sans_L_Regular-111"/>
      <use transform="translate(576.928574 0)scale(0.996264)" xlink:href="#Nimbus_Sans_L_Regular-97"/>
      <use transform="translate(632.320251 0)scale(0.996264)" xlink:href="#Nimbus_Sans_L_Regular-99"/>
      <use transform="translate(682.133452 0)scale(0.996264)" xlink:href="#Nimbus_Sans_L_Regular-104"/>
      <use transform="translate(765.220298 0)scale(0.996264)" xlink:href="#Nimbus_Sans_L_Regular-49"/>
     </g>
    </g>
    <g id="line2d_21">
     <path d="M 319.471042 71.027416 
L 335.471042 71.027416 
" style="fill:none;stroke:#252525;stroke-dasharray:12.8,3.2,2,3.2;stroke-dashoffset:0;stroke-width:2;"/>
    </g>
    <g id="line2d_22"/>
    <g id="text_19">
     <!-- Mean: Approach 2 -->
     <g transform="translate(341.871042 73.827416)scale(0.08 -0.08)">
      <use transform="scale(0.996264)" xlink:href="#Nimbus_Sans_L_Regular-77"/>
      <use transform="translate(82.98843 0)scale(0.996264)" xlink:href="#Nimbus_Sans_L_Regular-101"/>
      <use transform="translate(138.380107 0)scale(0.996264)" xlink:href="#Nimbus_Sans_L_Regular-97"/>
      <use transform="translate(193.771784 0)scale(0.996264)" xlink:href="#Nimbus_Sans_L_Regular-110"/>
      <use transform="translate(249.163461 0)scale(0.996264)" xlink:href="#Nimbus_Sans_L_Regular-58"/>
      <use transform="translate(311.128282 0)scale(0.996264)" xlink:href="#Nimbus_Sans_L_Regular-65"/>
      <use transform="translate(377.578314 0)scale(0.996264)" xlink:href="#Nimbus_Sans_L_Regular-112"/>
      <use transform="translate(432.96999 0)scale(0.996264)" xlink:href="#Nimbus_Sans_L_Regular-112"/>
      <use transform="translate(488.361667 0)scale(0.996264)" xlink:href="#Nimbus_Sans_L_Regular-114"/>
      <use transform="translate(521.536897 0)scale(0.996264)" xlink:href="#Nimbus_Sans_L_Regular-111"/>
      <use transform="translate(576.928574 0)scale(0.996264)" xlink:href="#Nimbus_Sans_L_Regular-97"/>
      <use transform="translate(632.320251 0)scale(0.996264)" xlink:href="#Nimbus_Sans_L_Regular-99"/>
      <use transform="translate(682.133452 0)scale(0.996264)" xlink:href="#Nimbus_Sans_L_Regular-104"/>
      <use transform="translate(765.220298 0)scale(0.996264)" xlink:href="#Nimbus_Sans_L_Regular-50"/>
     </g>
    </g>
   </g>
  </g>
 </g>
 <defs>
  <clipPath id="p799a3d9b92">
   <rect height="243.936" width="357.12" x="57.6" y="38.016"/>
  </clipPath>
 </defs>
</svg>
